<svg xmlns="http://www.w3.org/2000/svg" viewBox="0 0 98.94 12.24"><title>logo4thofJune</title><g id="Capa_2" data-name="Capa 2"><g id="Capa_1-2" data-name="Capa 1"><path d="M0,9.47V8L4.47.17H6.05l-4.55,8H5.63V4.62H7.11V8.16H8.55V9.47H7.11v2.6H5.63V9.47Z"/><path d="M13,.92h1.45v2.6h3.67V4.71H14.47v4c0,1.85.88,2.26,2.17,2.26a3.72,3.72,0,0,0,1.5-.36v1.45a7.58,7.58,0,0,1-1.5.17c-2,0-3.62-.92-3.62-3.52v-4H10.15V3.52H13Z"/><path d="M21.49,0h1.44V4.62a3.17,3.17,0,0,1,2.72-1.27c1.8,0,2.91,1.15,2.91,3.14v5.58H27.08V6.87c0-1.33-.58-2.23-1.89-2.23-1.88,0-2.26,1.85-2.26,3.13v4.3H21.49Z"/><path d="M31.4,7.79c0-2.37,1.27-4.44,4-4.44s4,2.07,4,4.44-1.31,4.45-4,4.45S31.4,10.15,31.4,7.79Zm4-3.2c-1.75,0-2.5,1.53-2.5,3.2S33.62,11,35.39,11s2.54-1.51,2.54-3.19S37.13,4.59,35.36,4.59Z"/><path d="M44.59,12.07V4.71H41.7V3.52h2.89C44.59.92,46.17,0,48,0a10.39,10.39,0,0,1,1.67.17V1.63A5.23,5.23,0,0,0,48,1.26c-1.12,0-2,.39-2,2.26h3.67V4.71H46v7.36Z"/><path d="M53.4,8.35c0,1.49.74,2.51,2.22,2.51s2.23-1,2.23-2.51V.17h1.49V8.35a3.71,3.71,0,1,1-7.42,0Z"/><path d="M63,8.72V3.52h1.44v5.2c0,1.51.41,2.26,1.89,2.26a2.31,2.31,0,0,0,2.3-2.26V3.52H70v8.55H68.69l-.11-1.5A2.91,2.91,0,0,1,66,12.24C63.94,12.24,63,10.88,63,8.72Z"/><path d="M74.92,5A2.89,2.89,0,0,1,77.5,3.35c2.06,0,3,1.34,3,3.52v5.2H79.1V6.87c0-1.52-.6-2.23-1.91-2.23-1.85,0-2.27,2.23-2.27,3.71v3.72H73.47V3.52h1.31Z"/><path d="M91,9.52a3.56,3.56,0,0,1-3.72,2.72c-2.62,0-3.91-1.79-3.91-4.32s1.29-4.57,4-4.57,3.87,2.21,3.87,4.71v.3H84.81A2.49,2.49,0,0,0,87.28,11a2.4,2.4,0,0,0,2.19-1.46Zm-1.3-2.35a2.47,2.47,0,0,0-2.42-2.58,2.58,2.58,0,0,0-2.41,2.58Z"/><path d="M96.37,12.07V9.69h2.57v2.38Z"/></g></g></svg>